<svg width="68" height="68" viewBox="0 0 68 68" fill="none" xmlns="http://www.w3.org/2000/svg">
<path d="M56.0602 56.1037V42.1606H42.1171M11.4422 11.4857V25.4288H25.3854M55.8873 31.0061C55.3036 26.3697 53.2789 22.0337 50.0989 18.6096C46.9188 15.1856 42.744 12.8465 38.1633 11.9222C33.5827 10.9979 28.8275 11.5352 24.5685 13.4582C20.3096 15.3813 16.7619 18.593 14.4261 22.6402M11.6151 36.5833C12.1989 41.2197 14.2236 45.5557 17.4036 48.9798C20.5836 52.4038 24.7585 54.7429 29.3391 55.6672C33.9198 56.5915 38.675 56.0542 42.9339 54.1312C47.1929 52.2081 50.7405 48.9964 53.0764 44.9492" stroke="#343434" stroke-width="5.57725" stroke-linecap="round" stroke-linejoin="round"/>
</svg>
