<svg width="68" height="68" viewBox="0 0 68 68" fill="none" xmlns="http://www.w3.org/2000/svg">
<path d="M18.8946 49.1488H10.5196V57.5238M57.9779 57.5238H49.6029V49.1488M49.6029 18.4404H57.9779V10.0654M10.5196 10.0654H18.8946V18.4404" stroke="#343434" stroke-width="5.58333" stroke-linecap="round" stroke-linejoin="round"/>
<path d="M18.8946 10.4758C11.3264 15.4687 6.33209 24.0489 6.33209 33.7946C6.33209 35.2184 6.43818 36.6156 6.64336 37.9821M38.4363 61.3986C37.0502 61.607 35.6504 61.7115 34.2488 61.7113C24.503 61.7113 15.9229 56.717 10.93 49.1488M61.8528 29.6071C62.0593 30.9736 62.1654 32.3709 62.1654 33.7946C62.1654 43.5403 57.1711 52.1205 49.6029 57.1134M30.0613 6.18922C31.4474 5.98132 32.8471 5.87727 34.2488 5.87795C43.9945 5.87795 52.5747 10.8722 57.5675 18.4404" stroke="#343434" stroke-width="5.58333" stroke-linecap="round" stroke-linejoin="round"/>
</svg>
