<svg width="68" height="68" viewBox="0 0 68 68" fill="none" xmlns="http://www.w3.org/2000/svg">
<path d="M34 5.87794C49.4184 5.87794 61.9167 18.3762 61.9167 33.7946C61.9167 49.213 49.4184 61.7113 34 61.7113C18.5816 61.7113 6.08334 49.213 6.08334 33.7946C6.08334 18.3762 18.5816 5.87794 34 5.87794ZM34 10.0654C27.7066 10.0654 21.671 12.5655 17.221 17.0156C12.7709 21.4656 10.2708 27.5012 10.2708 33.7946C10.2708 40.088 12.7709 46.1236 17.221 50.5737C21.671 55.0237 27.7066 57.5238 34 57.5238C40.2934 57.5238 46.329 55.0237 50.7791 50.5737C55.2291 46.1236 57.7292 40.088 57.7292 33.7946C57.7292 27.5012 55.2291 21.4656 50.7791 17.0156C46.329 12.5655 40.2934 10.0654 34 10.0654ZM34 19.8363C34.5553 19.8363 35.0879 20.0569 35.4805 20.4495C35.8732 20.8422 36.0938 21.3747 36.0938 21.93V31.7009H45.8646C46.4199 31.7009 46.9524 31.9215 47.3451 32.3141C47.7378 32.7068 47.9583 33.2393 47.9583 33.7946C47.9583 34.3499 47.7378 34.8825 47.3451 35.2751C46.9524 35.6678 46.4199 35.8884 45.8646 35.8884H36.0938V45.6592C36.0938 46.2145 35.8732 46.747 35.4805 47.1397C35.0879 47.5324 34.5553 47.7529 34 47.7529C33.4447 47.7529 32.9122 47.5324 32.5195 47.1397C32.1269 46.747 31.9063 46.2145 31.9063 45.6592V35.8884H22.1354C21.5801 35.8884 21.0476 35.6678 20.6549 35.2751C20.2623 34.8825 20.0417 34.3499 20.0417 33.7946C20.0417 33.2393 20.2623 32.7068 20.6549 32.3141C21.0476 31.9215 21.5801 31.7009 22.1354 31.7009H31.9063V21.93C31.9063 21.3747 32.1269 20.8422 32.5195 20.4495C32.9122 20.0569 33.4447 19.8363 34 19.8363Z" fill="#343434"/>
</svg>
