<svg width="69" height="69" viewBox="0 0 69 69" fill="none" xmlns="http://www.w3.org/2000/svg">
<path d="M57.6238 36.4096V33.1584L61.7038 29.5884C62.4559 28.9255 62.9495 28.018 63.0972 27.0265C63.245 26.0349 63.0375 25.023 62.5113 24.1696L57.4963 15.6696C57.1237 15.0242 56.5879 14.4881 55.9426 14.1151C55.2974 13.7421 54.5654 13.5454 53.8201 13.5446C53.3582 13.5411 52.8988 13.6128 52.4601 13.7571L47.2963 15.4996C46.4048 14.9072 45.4748 14.3748 44.5126 13.9059L43.4288 8.55086C43.2345 7.57252 42.7023 6.6937 41.9253 6.06823C41.1483 5.44276 40.1761 5.1105 39.1788 5.12961H29.2338C28.2366 5.1105 27.2643 5.44276 26.4874 6.06823C25.7104 6.6937 25.1781 7.57252 24.9838 8.55086L23.9001 13.9059C22.9309 14.3746 21.9939 14.9071 21.0951 15.4996L16.0376 13.6721C15.5941 13.5566 15.1348 13.5135 14.6776 13.5446C13.9323 13.5454 13.2003 13.7421 12.555 14.1151C11.9098 14.4881 11.374 15.0242 11.0013 15.6696L5.98633 24.1696C5.49033 25.0217 5.30601 26.0198 5.46496 26.9928C5.6239 27.9659 6.11621 28.8534 6.85758 29.5034L10.8738 33.1796V36.4309L6.85758 40.0009C6.09527 40.6554 5.5895 41.5588 5.43 42.5507C5.2705 43.5427 5.46761 44.5591 5.98633 45.4196L11.0013 53.9196C11.374 54.5651 11.9098 55.1012 12.555 55.4741C13.2003 55.8471 13.9323 56.0438 14.6776 56.0446C15.1394 56.0481 15.5988 55.9764 16.0376 55.8321L21.2013 54.0896C22.0928 54.682 23.0228 55.2145 23.9851 55.6834L25.0688 61.0384C25.2631 62.0167 25.7954 62.8955 26.5724 63.521C27.3493 64.1465 28.3216 64.4787 29.3188 64.4596H39.3488C40.3461 64.4787 41.3183 64.1465 42.0953 63.521C42.8723 62.8955 43.4045 62.0167 43.5988 61.0384L44.6826 55.6834C45.6517 55.2146 46.5888 54.6822 47.4876 54.0896L52.6301 55.8321C53.0689 55.9764 53.5282 56.0481 53.9901 56.0446C54.7354 56.0438 55.4674 55.8471 56.1126 55.4741C56.7579 55.1012 57.2937 54.5651 57.6663 53.9196L62.5113 45.4196C63.0073 44.5675 63.1916 43.5695 63.0327 42.5964C62.8738 41.6234 62.3814 40.7358 61.6401 40.0859L57.6238 36.4096ZM53.8201 51.7946L46.5313 49.3296C44.8251 50.7748 42.875 51.9046 40.7726 52.6659L39.2638 60.2946H29.2338L27.7251 52.7509C25.6392 51.968 23.6997 50.8402 21.9876 49.4146L14.6776 51.7946L9.66258 43.2946L15.4426 38.1946C15.0497 35.9949 15.0497 33.743 15.4426 31.5434L9.66258 26.2946L14.6776 17.7946L21.9663 20.2596C23.6726 18.8144 25.6226 17.6847 27.7251 16.9234L29.2338 9.29461H39.2638L40.7726 16.8384C42.8584 17.6213 44.7979 18.749 46.5101 20.1746L53.8201 17.7946L58.8351 26.2946L53.0551 31.3946C53.448 33.5943 53.448 35.8462 53.0551 38.0459L58.8351 43.2946L53.8201 51.7946Z" fill="#343434"/>
<path d="M34.2488 47.5446C31.7271 47.5446 29.262 46.7968 27.1653 45.3959C25.0685 43.9949 23.4343 42.0036 22.4693 39.6738C21.5043 37.3441 21.2518 34.7805 21.7438 32.3072C22.2357 29.834 23.4501 27.5621 25.2332 25.779C27.0163 23.9959 29.2881 22.7816 31.7614 22.2896C34.2346 21.7976 36.7982 22.0501 39.128 23.0152C41.4578 23.9802 43.449 25.6144 44.85 27.7111C46.251 29.8078 46.9988 32.2729 46.9988 34.7946C47.0158 36.4737 46.6977 38.1393 46.063 39.6939C45.4283 41.2485 44.4897 42.6609 43.3024 43.8482C42.115 45.0356 40.7027 45.9741 39.1481 46.6088C37.5935 47.2435 35.9279 47.5617 34.2488 47.5446ZM34.2488 26.2946C33.1254 26.2685 32.0084 26.4704 30.9653 26.8883C29.9222 27.3062 28.9747 27.9314 28.1801 28.7259C27.3855 29.5205 26.7604 30.468 26.3425 31.5111C25.9246 32.5542 25.7226 33.6712 25.7488 34.7946C25.7226 35.918 25.9246 37.035 26.3425 38.0781C26.7604 39.1212 27.3855 40.0687 28.1801 40.8633C28.9747 41.6579 29.9222 42.283 30.9653 42.7009C32.0084 43.1188 33.1254 43.3208 34.2488 43.2946C35.3722 43.3208 36.4892 43.1188 37.5323 42.7009C38.5754 42.283 39.5229 41.6579 40.3175 40.8633C41.112 40.0687 41.7372 39.1212 42.1551 38.0781C42.573 37.035 42.775 35.918 42.7488 34.7946C42.775 33.6712 42.573 32.5542 42.1551 31.5111C41.7372 30.468 41.112 29.5205 40.3175 28.7259C39.5229 27.9314 38.5754 27.3062 37.5323 26.8883C36.4892 26.4704 35.3722 26.2685 34.2488 26.2946Z" fill="#343434"/>
</svg>
