<svg width="68" height="68" viewBox="0 0 68 68" fill="none" xmlns="http://www.w3.org/2000/svg">
<path d="M31.0405 7.38545C31.8698 6.92493 32.8027 6.68327 33.7512 6.68327C34.6998 6.68327 35.6327 6.92493 36.4619 7.38545L57.4413 19.0379C57.8762 19.2797 58.2386 19.6335 58.4909 20.0625C58.7432 20.4915 58.8762 20.9801 58.8762 21.4778V44.4672C58.876 45.4628 58.6095 46.4403 58.1044 47.2983C57.5993 48.1563 56.874 48.8636 56.0036 49.347L36.4619 60.2066C35.6327 60.6671 34.6998 60.9088 33.7512 60.9088C32.8027 60.9088 31.8698 60.6671 31.0405 60.2066L11.4988 49.347C10.6288 48.8638 9.90376 48.1569 9.3987 47.2995C8.89364 46.442 8.62694 45.4651 8.62621 44.47V21.4778C8.62618 20.9801 8.75921 20.4915 9.0115 20.0625C9.26379 19.6335 9.62617 19.2797 10.0611 19.0379L31.0433 7.38545H31.0405Z" stroke="#343434" stroke-width="5.58333" stroke-linecap="round" stroke-linejoin="round"/>
<path d="M8.62621 19.8363L33.7512 33.7946M33.7512 33.7946L58.8762 19.8363M33.7512 33.7946V60.3155" stroke="#343434" stroke-width="5.58333" stroke-linejoin="round"/>
<path d="M21.1887 26.8155L46.3137 12.8571M17.0012 34.7103L25.3762 39.378" stroke="#343434" stroke-width="5.58333" stroke-linecap="round" stroke-linejoin="round"/>
</svg>
