<?xml version="1.0" encoding="UTF-8" standalone="no"?>
<svg
   xmlns:dc="http://purl.org/dc/elements/1.1/"
   xmlns:cc="http://creativecommons.org/ns#"
   xmlns:rdf="http://www.w3.org/1999/02/22-rdf-syntax-ns#"
   xmlns:svg="http://www.w3.org/2000/svg"
   xmlns="http://www.w3.org/2000/svg"
   xmlns:sodipodi="http://sodipodi.sourceforge.net/DTD/sodipodi-0.dtd"
   xmlns:inkscape="http://www.inkscape.org/namespaces/inkscape"
   id="body_1"
   width="16"
   height="16"
   version="1.1"
   sodipodi:docname="16x16_cinza_2.svg"
   inkscape:version="0.92.5 (2060ec1f9f, 2020-04-08)">
  <metadata
     id="metadata23">
    <rdf:RDF>
      <cc:Work
         rdf:about="">
        <dc:format>image/svg+xml</dc:format>
        <dc:type
           rdf:resource="http://purl.org/dc/dcmitype/StillImage" />
      </cc:Work>
    </rdf:RDF>
  </metadata>
  <sodipodi:namedview
     pagecolor="#ffffff"
     bordercolor="#666666"
     borderopacity="1"
     objecttolerance="10"
     gridtolerance="10"
     guidetolerance="10"
     inkscape:pageopacity="0"
     inkscape:pageshadow="2"
     inkscape:window-width="1644"
     inkscape:window-height="1022"
     id="namedview21"
     showgrid="false"
     inkscape:zoom="14.75"
     inkscape:cx="7.7966102"
     inkscape:cy="8"
     inkscape:window-x="36"
     inkscape:window-y="0"
     inkscape:window-maximized="1"
     inkscape:current-layer="body_1" />
  <defs
     id="defs8">
    <clipPath
       id="1">
      <path
         clip-rule="evenodd"
         d="M4.070312 0L19 0L19 29.03125L4.070312 29.03125L4.070312 0z"
         id="path2" />
    </clipPath>
    <clipPath
       id="2">
      <path
         clip-rule="evenodd"
         d="M12 0L26.570312 0L26.570312 29L12 29L12 0z"
         id="path5" />
    </clipPath>
  </defs>
  <g
     transform="matrix(0.5333333 0 0 0.5333333 1.0172525E-06 -0)"
     id="g18"
     style="fill:#d2d2d2;fill-opacity:1">
    <g
       clip-path="url(#1)"
       id="g12"
       style="fill:#d2d2d2;fill-opacity:1">
      <path
         d="M4.070312 14.515625C 4.070312 22.519531 9.109375 29.027344 15.320312 29.027344C 16.085938 29.027344 16.828125 28.9375 17.546875 28.734375C 17.527344 28.597656 17.527344 28.460938 17.570312 28.347656C 18.089844 26.988281 18.335938 25.492188 18.335938 23.789062C 18.335938 19.1875 16.558594 16.964844 14.667969 14.585938C 12.847656 12.292969 10.957031 9.9375 10.957031 5.265625C 10.957031 3.585938 11.179688 2.15625 11.675781 0.796875C 7.265625 2.746094 4.070312 8.167969 4.070312 14.515625z"
         stroke="none"
         fill="#737373"
         fill-rule="nonzero"
         id="path10"
         style="fill:#d2d2d2;fill-opacity:1" />
    </g>
    <g
       clip-path="url(#2)"
       id="g16"
       style="fill:#d2d2d2;fill-opacity:1">
      <path
         d="M15.320312 0.00390625C 14.644531 0.00390625 13.992188 0.0703125 13.363281 0.230469C 13.363281 0.253906 13.339844 0.277344 13.339844 0.277344C 12.621094 1.75 12.304688 3.335938 12.304688 5.242188C 12.304688 9.414062 13.878906 11.410156 15.726562 13.699219C 17.59375 16.035156 19.6875 18.664062 19.6875 23.746094C 19.6875 25.355469 19.484375 26.804688 19.054688 28.167969C 23.421875 26.21875 26.570312 20.820312 26.570312 14.515625C 26.570312 6.511719 21.53125 0.00390625 15.320312 0.00390625z"
         stroke="none"
         fill="#737373"
         fill-rule="nonzero"
         id="path14"
         style="fill:#d2d2d2;fill-opacity:1" />
    </g>
  </g>
</svg>
